<mxfile host="app.diagrams.net" agent="Mozilla/5.0 (X11; Linux x86_64) AppleWebKit/537.36 (KHTML, like Gecko) Chrome/130.0.0.0 Safari/537.36" version="28.2.3">
  <diagram name="Page-1" id="p4Clx18LSsJSB80i-sPb">
    <mxGraphModel dx="1450" dy="943" grid="1" gridSize="10" guides="1" tooltips="1" connect="1" arrows="1" fold="1" page="1" pageScale="1" pageWidth="4681" pageHeight="3300" math="0" shadow="0">
      <root>
        <mxCell id="0" />
        <mxCell id="1" parent="0" />
        <mxCell id="Loq4JmjkzfHorDy7ScUB-1" value="Records of the Council of Castile" style="swimlane;fontStyle=0;childLayout=stackLayout;horizontal=1;startSize=26;strokeColor=#DAEEF3;fillColor=none;strokeWidth=3;horizontalStack=0;resizeParent=1;resizeParentMax=0;resizeLast=0;collapsible=1;marginBottom=0;whiteSpace=wrap;html=1;" parent="1" vertex="1">
          <mxGeometry x="2170" y="937.5" width="190" height="52" as="geometry" />
        </mxCell>
        <mxCell id="Loq4JmjkzfHorDy7ScUB-2" value="Record Set" style="text;strokeColor=#DAEEF3;strokeWidth=3;fillColor=none;align=center;verticalAlign=top;spacingLeft=4;spacingRight=4;overflow=hidden;rotatable=0;points=[[0,0.5],[1,0.5]];portConstraint=eastwest;whiteSpace=wrap;html=1;" parent="Loq4JmjkzfHorDy7ScUB-1" vertex="1">
          <mxGeometry y="26" width="190" height="26" as="geometry" />
        </mxCell>
        <mxCell id="Loq4JmjkzfHorDy7ScUB-3" value="General Archive of Simancas" style="swimlane;fontStyle=0;childLayout=stackLayout;horizontal=1;startSize=26;strokeColor=#C6D9F1;strokeWidth=3;fillColor=none;horizontalStack=0;resizeParent=1;resizeParentMax=0;resizeLast=0;collapsible=1;marginBottom=0;whiteSpace=wrap;html=1;" parent="1" vertex="1">
          <mxGeometry x="1720" y="270" width="170" height="52" as="geometry" />
        </mxCell>
        <mxCell id="Loq4JmjkzfHorDy7ScUB-4" value="Corporate Body" style="text;strokeColor=#C6D9F1;strokeWidth=3;fillColor=none;align=center;verticalAlign=top;spacingLeft=4;spacingRight=4;overflow=hidden;rotatable=0;points=[[0,0.5],[1,0.5]];portConstraint=eastwest;whiteSpace=wrap;html=1;" parent="Loq4JmjkzfHorDy7ScUB-3" vertex="1">
          <mxGeometry y="26" width="170" height="26" as="geometry" />
        </mxCell>
        <mxCell id="Loq4JmjkzfHorDy7ScUB-7" value="Council of Castile" style="swimlane;fontStyle=0;childLayout=stackLayout;horizontal=1;startSize=26;strokeColor=#C6D9F1;strokeWidth=3;fillColor=none;horizontalStack=0;resizeParent=1;resizeParentMax=0;resizeLast=0;collapsible=1;marginBottom=0;whiteSpace=wrap;html=1;" parent="1" vertex="1">
          <mxGeometry x="2500" y="867.5" width="160" height="52" as="geometry" />
        </mxCell>
        <mxCell id="Loq4JmjkzfHorDy7ScUB-8" value="Corporate Body" style="text;strokeColor=#C6D9F1;strokeWidth=3;fillColor=none;align=center;verticalAlign=top;spacingLeft=4;spacingRight=4;overflow=hidden;rotatable=0;points=[[0,0.5],[1,0.5]];portConstraint=eastwest;whiteSpace=wrap;html=1;" parent="Loq4JmjkzfHorDy7ScUB-7" vertex="1">
          <mxGeometry y="26" width="160" height="26" as="geometry" />
        </mxCell>
        <mxCell id="Loq4JmjkzfHorDy7ScUB-9" value="" style="endArrow=classic;html=1;rounded=0;entryX=-0.022;entryY=-0.148;entryDx=0;entryDy=0;exitX=0.999;exitY=0.136;exitDx=0;exitDy=0;exitPerimeter=0;entryPerimeter=0;" parent="1" source="Loq4JmjkzfHorDy7ScUB-2" target="Loq4JmjkzfHorDy7ScUB-8" edge="1">
          <mxGeometry relative="1" as="geometry">
            <mxPoint x="2164.25" y="777.5" as="sourcePoint" />
            <mxPoint x="2364.25" y="777.5" as="targetPoint" />
          </mxGeometry>
        </mxCell>
        <mxCell id="Loq4JmjkzfHorDy7ScUB-10" value="has creator" style="edgeLabel;resizable=0;html=1;;align=center;verticalAlign=middle;" parent="Loq4JmjkzfHorDy7ScUB-9" connectable="0" vertex="1">
          <mxGeometry relative="1" as="geometry" />
        </mxCell>
        <mxCell id="Loq4JmjkzfHorDy7ScUB-11" value="" style="endArrow=classic;html=1;rounded=0;exitX=0.5;exitY=0;exitDx=0;exitDy=0;startArrow=classic;startFill=1;" parent="1" source="Loq4JmjkzfHorDy7ScUB-7" target="Loq4JmjkzfHorDy7ScUB-13" edge="1">
          <mxGeometry relative="1" as="geometry">
            <mxPoint x="2544.25" y="987.5" as="sourcePoint" />
            <mxPoint x="2540.25" y="1007.5" as="targetPoint" />
          </mxGeometry>
        </mxCell>
        <mxCell id="Loq4JmjkzfHorDy7ScUB-12" value="is agent associated with agent" style="edgeLabel;resizable=0;html=1;;align=center;verticalAlign=middle;" parent="Loq4JmjkzfHorDy7ScUB-11" connectable="0" vertex="1">
          <mxGeometry relative="1" as="geometry" />
        </mxCell>
        <mxCell id="Loq4JmjkzfHorDy7ScUB-13" value="Royal Court of Habsburg Spain&amp;nbsp;" style="swimlane;fontStyle=0;childLayout=stackLayout;horizontal=1;startSize=26;strokeColor=#C6D9F1;strokeWidth=2;fillColor=none;horizontalStack=0;resizeParent=1;resizeParentMax=0;resizeLast=0;collapsible=1;marginBottom=0;whiteSpace=wrap;html=1;" parent="1" vertex="1">
          <mxGeometry x="2491" y="497.5" width="178.5" height="52" as="geometry" />
        </mxCell>
        <mxCell id="Loq4JmjkzfHorDy7ScUB-14" value="Group&lt;div&gt;&lt;br&gt;&lt;/div&gt;" style="text;strokeColor=#C6D9F1;strokeWidth=2;fillColor=#C6D9F1;align=center;verticalAlign=top;spacingLeft=4;spacingRight=4;overflow=hidden;rotatable=0;points=[[0,0.5],[1,0.5]];portConstraint=eastwest;whiteSpace=wrap;html=1;" parent="Loq4JmjkzfHorDy7ScUB-13" vertex="1">
          <mxGeometry y="26" width="178.5" height="26" as="geometry" />
        </mxCell>
        <mxCell id="Loq4JmjkzfHorDy7ScUB-17" value="Records of the Council of Castile collected by Diego de Ayala" style="swimlane;fontStyle=0;childLayout=stackLayout;horizontal=1;startSize=40;strokeColor=#DAEEF3;fillColor=none;strokeWidth=3;horizontalStack=0;resizeParent=1;resizeParentMax=0;resizeLast=0;collapsible=1;marginBottom=0;whiteSpace=wrap;html=1;" parent="1" vertex="1">
          <mxGeometry x="530" y="471.5" width="200" height="70" as="geometry" />
        </mxCell>
        <mxCell id="Loq4JmjkzfHorDy7ScUB-18" value="Record Set" style="text;strokeColor=#DAEEF3;strokeWidth=3;fillColor=none;align=center;verticalAlign=top;spacingLeft=4;spacingRight=4;overflow=hidden;rotatable=0;points=[[0,0.5],[1,0.5]];portConstraint=eastwest;whiteSpace=wrap;html=1;" parent="Loq4JmjkzfHorDy7ScUB-17" vertex="1">
          <mxGeometry y="40" width="200" height="30" as="geometry" />
        </mxCell>
        <mxCell id="Loq4JmjkzfHorDy7ScUB-19" value="Records of the Council of Castile held at Simancas" style="swimlane;fontStyle=0;childLayout=stackLayout;horizontal=1;startSize=37;strokeColor=#DAEEF3;fillColor=none;strokeWidth=3;horizontalStack=0;resizeParent=1;resizeParentMax=0;resizeLast=0;collapsible=1;marginBottom=0;whiteSpace=wrap;html=1;" parent="1" vertex="1">
          <mxGeometry x="1710" y="531" width="190" height="63" as="geometry" />
        </mxCell>
        <mxCell id="Loq4JmjkzfHorDy7ScUB-20" value="Record Set" style="text;strokeColor=#DAEEF3;strokeWidth=3;fillColor=none;align=center;verticalAlign=top;spacingLeft=4;spacingRight=4;overflow=hidden;rotatable=0;points=[[0,0.5],[1,0.5]];portConstraint=eastwest;whiteSpace=wrap;html=1;" parent="Loq4JmjkzfHorDy7ScUB-19" vertex="1">
          <mxGeometry y="37" width="190" height="26" as="geometry" />
        </mxCell>
        <mxCell id="Loq4JmjkzfHorDy7ScUB-21" value="" style="endArrow=classic;html=1;rounded=0;entryX=1;entryY=0;entryDx=0;entryDy=0;exitX=1;exitY=0;exitDx=0;exitDy=0;" parent="1" target="Loq4JmjkzfHorDy7ScUB-17" edge="1">
          <mxGeometry relative="1" as="geometry">
            <mxPoint x="1050" y="337.0239999999999" as="sourcePoint" />
            <mxPoint x="721.98" y="471.4999999999998" as="targetPoint" />
          </mxGeometry>
        </mxCell>
        <mxCell id="Loq4JmjkzfHorDy7ScUB-22" value="is collector of" style="edgeLabel;resizable=0;html=1;;align=center;verticalAlign=middle;" parent="Loq4JmjkzfHorDy7ScUB-21" connectable="0" vertex="1">
          <mxGeometry relative="1" as="geometry">
            <mxPoint x="70" y="-34" as="offset" />
          </mxGeometry>
        </mxCell>
        <mxCell id="Loq4JmjkzfHorDy7ScUB-23" value="Diego de Ayala" style="swimlane;fontStyle=0;childLayout=stackLayout;horizontal=1;startSize=26;strokeColor=#E5DFEC;strokeWidth=3;fillColor=none;horizontalStack=0;resizeParent=1;resizeParentMax=0;resizeLast=0;collapsible=1;marginBottom=0;whiteSpace=wrap;html=1;" parent="1" vertex="1">
          <mxGeometry x="1050" y="310" width="90" height="52" as="geometry" />
        </mxCell>
        <mxCell id="Loq4JmjkzfHorDy7ScUB-24" value="Person" style="text;strokeColor=#E5DFEC;strokeWidth=3;fillColor=none;align=center;verticalAlign=top;spacingLeft=4;spacingRight=4;overflow=hidden;rotatable=0;points=[[0,0.5],[1,0.5]];portConstraint=eastwest;whiteSpace=wrap;html=1;" parent="Loq4JmjkzfHorDy7ScUB-23" vertex="1">
          <mxGeometry y="26" width="90" height="26" as="geometry" />
        </mxCell>
        <mxCell id="Loq4JmjkzfHorDy7ScUB-25" value="Head archivist at Simancas" style="swimlane;fontStyle=0;childLayout=stackLayout;horizontal=1;startSize=40;strokeColor=#E5DFEC;strokeWidth=3;fillColor=none;horizontalStack=0;resizeParent=1;resizeParentMax=0;resizeLast=0;collapsible=1;marginBottom=0;whiteSpace=wrap;html=1;" parent="1" vertex="1">
          <mxGeometry x="1410" y="90" width="130" height="66" as="geometry" />
        </mxCell>
        <mxCell id="Loq4JmjkzfHorDy7ScUB-26" value="Position" style="text;strokeColor=#E5DFEC;strokeWidth=3;fillColor=none;align=center;verticalAlign=top;spacingLeft=4;spacingRight=4;overflow=hidden;rotatable=0;points=[[0,0.5],[1,0.5]];portConstraint=eastwest;whiteSpace=wrap;html=1;" parent="Loq4JmjkzfHorDy7ScUB-25" vertex="1">
          <mxGeometry y="40" width="130" height="26" as="geometry" />
        </mxCell>
        <mxCell id="Loq4JmjkzfHorDy7ScUB-27" value="Records of the Council of Castile arranged by Diego de Ayala" style="swimlane;fontStyle=0;childLayout=stackLayout;horizontal=1;startSize=40;strokeColor=#DAEEF3;fillColor=none;strokeWidth=3;horizontalStack=0;resizeParent=1;resizeParentMax=0;resizeLast=0;collapsible=1;marginBottom=0;whiteSpace=wrap;html=1;" parent="1" vertex="1">
          <mxGeometry x="1340" y="410" width="200" height="70" as="geometry" />
        </mxCell>
        <mxCell id="Loq4JmjkzfHorDy7ScUB-28" value="Record Set" style="text;strokeColor=#DAEEF3;strokeWidth=3;fillColor=none;align=center;verticalAlign=top;spacingLeft=4;spacingRight=4;overflow=hidden;rotatable=0;points=[[0,0.5],[1,0.5]];portConstraint=eastwest;whiteSpace=wrap;html=1;" parent="Loq4JmjkzfHorDy7ScUB-27" vertex="1">
          <mxGeometry y="40" width="200" height="30" as="geometry" />
        </mxCell>
        <mxCell id="Loq4JmjkzfHorDy7ScUB-29" value="Records of the Council of Castile sent to Simancas in accordance with the royal decree of 1540" style="swimlane;fontStyle=0;childLayout=stackLayout;horizontal=1;startSize=50;strokeColor=#DAEEF3;fillColor=none;strokeWidth=3;horizontalStack=0;resizeParent=1;resizeParentMax=0;resizeLast=0;collapsible=1;marginBottom=0;whiteSpace=wrap;html=1;" parent="1" vertex="1">
          <mxGeometry x="530" y="600" width="200" height="80" as="geometry" />
        </mxCell>
        <mxCell id="Loq4JmjkzfHorDy7ScUB-30" value="Record Set" style="text;strokeColor=#DAEEF3;strokeWidth=3;fillColor=none;align=center;verticalAlign=top;spacingLeft=4;spacingRight=4;overflow=hidden;rotatable=0;points=[[0,0.5],[1,0.5]];portConstraint=eastwest;whiteSpace=wrap;html=1;" parent="Loq4JmjkzfHorDy7ScUB-29" vertex="1">
          <mxGeometry y="50" width="200" height="30" as="geometry" />
        </mxCell>
        <mxCell id="Loq4JmjkzfHorDy7ScUB-31" value="Accrual at Simancas of records of the Council of Castile" style="swimlane;fontStyle=0;childLayout=stackLayout;horizontal=1;startSize=41;strokeColor=#FFFAA0;strokeWidth=3;fillColor=none;horizontalStack=0;resizeParent=1;resizeParentMax=0;resizeLast=0;collapsible=1;marginBottom=0;whiteSpace=wrap;html=1;" parent="1" vertex="1">
          <mxGeometry x="130" y="716" width="210" height="67" as="geometry" />
        </mxCell>
        <mxCell id="Loq4JmjkzfHorDy7ScUB-32" value="Activity" style="text;strokeColor=#FFFAA0;strokeWidth=3;fillColor=none;align=center;verticalAlign=top;spacingLeft=4;spacingRight=4;overflow=hidden;rotatable=0;points=[[0,0.5],[1,0.5]];portConstraint=eastwest;whiteSpace=wrap;html=1;" parent="Loq4JmjkzfHorDy7ScUB-31" vertex="1">
          <mxGeometry y="41" width="210" height="26" as="geometry" />
        </mxCell>
        <mxCell id="Loq4JmjkzfHorDy7ScUB-33" value="Miscellaneous records of the Council of Castile accrued at Simancas whilst Diego de Ayala was head archivist" style="swimlane;fontStyle=0;childLayout=stackLayout;horizontal=1;startSize=50;strokeColor=#DAEEF3;fillColor=none;strokeWidth=3;horizontalStack=0;resizeParent=1;resizeParentMax=0;resizeLast=0;collapsible=1;marginBottom=0;whiteSpace=wrap;html=1;" parent="1" vertex="1">
          <mxGeometry x="480" y="320" width="310" height="80" as="geometry" />
        </mxCell>
        <mxCell id="Loq4JmjkzfHorDy7ScUB-34" value="Record Set" style="text;strokeColor=#DAEEF3;strokeWidth=3;fillColor=none;align=center;verticalAlign=top;spacingLeft=4;spacingRight=4;overflow=hidden;rotatable=0;points=[[0,0.5],[1,0.5]];portConstraint=eastwest;whiteSpace=wrap;html=1;" parent="Loq4JmjkzfHorDy7ScUB-33" vertex="1">
          <mxGeometry y="50" width="310" height="30" as="geometry" />
        </mxCell>
        <mxCell id="Loq4JmjkzfHorDy7ScUB-35" value="Death of Diego de Ayala" style="swimlane;fontStyle=0;childLayout=stackLayout;horizontal=1;startSize=30;strokeColor=#DDD9C3;strokeWidth=2;fillColor=none;horizontalStack=0;resizeParent=1;resizeParentMax=0;resizeLast=0;collapsible=1;marginBottom=0;whiteSpace=wrap;html=1;" parent="1" vertex="1">
          <mxGeometry x="1020" y="150.5" width="140" height="56" as="geometry" />
        </mxCell>
        <mxCell id="Loq4JmjkzfHorDy7ScUB-36" value="Date" style="text;strokeColor=#DDD9C3;strokeWidth=2;fillColor=#DDD9C3;align=center;verticalAlign=top;spacingLeft=4;spacingRight=4;overflow=hidden;rotatable=0;points=[[0,0.5],[1,0.5]];portConstraint=eastwest;whiteSpace=wrap;html=1;" parent="Loq4JmjkzfHorDy7ScUB-35" vertex="1">
          <mxGeometry y="30" width="140" height="26" as="geometry" />
        </mxCell>
        <mxCell id="Loq4JmjkzfHorDy7ScUB-37" value="" style="endArrow=classic;html=1;rounded=0;entryX=0.581;entryY=0.982;entryDx=0;entryDy=0;entryPerimeter=0;exitX=0.566;exitY=-0.045;exitDx=0;exitDy=0;exitPerimeter=0;" parent="1" edge="1">
          <mxGeometry relative="1" as="geometry">
            <mxPoint x="1089.47" y="308.13" as="sourcePoint" />
            <mxPoint x="1089.87" y="219.50200000000004" as="targetPoint" />
          </mxGeometry>
        </mxCell>
        <mxCell id="Loq4JmjkzfHorDy7ScUB-38" value="has death date" style="edgeLabel;resizable=0;html=1;;align=center;verticalAlign=middle;" parent="Loq4JmjkzfHorDy7ScUB-37" connectable="0" vertex="1">
          <mxGeometry relative="1" as="geometry" />
        </mxCell>
        <mxCell id="Loq4JmjkzfHorDy7ScUB-39" value="1594/02/16&amp;nbsp;" style="html=1;whiteSpace=wrap;rounded=1;arcSize=50;" parent="1" vertex="1">
          <mxGeometry x="730" y="160" width="110" height="50" as="geometry" />
        </mxCell>
        <mxCell id="Loq4JmjkzfHorDy7ScUB-40" value="" style="endArrow=classic;html=1;rounded=0;entryX=1;entryY=0.5;entryDx=0;entryDy=0;exitX=0;exitY=0.5;exitDx=0;exitDy=0;" parent="1" source="Loq4JmjkzfHorDy7ScUB-35" target="Loq4JmjkzfHorDy7ScUB-39" edge="1">
          <mxGeometry relative="1" as="geometry">
            <mxPoint x="970" y="190" as="sourcePoint" />
            <mxPoint x="1060" y="370" as="targetPoint" />
          </mxGeometry>
        </mxCell>
        <mxCell id="Loq4JmjkzfHorDy7ScUB-41" value="normalized date" style="edgeLabel;resizable=0;html=1;;align=center;verticalAlign=middle;" parent="Loq4JmjkzfHorDy7ScUB-40" connectable="0" vertex="1">
          <mxGeometry relative="1" as="geometry" />
        </mxCell>
        <mxCell id="Loq4JmjkzfHorDy7ScUB-44" value="" style="endArrow=classic;html=1;rounded=0;exitX=0.25;exitY=0;exitDx=0;exitDy=0;" parent="1" source="Loq4JmjkzfHorDy7ScUB-35" target="Loq4JmjkzfHorDy7ScUB-46" edge="1">
          <mxGeometry relative="1" as="geometry">
            <mxPoint x="830" y="110" as="sourcePoint" />
            <mxPoint x="910" y="80" as="targetPoint" />
          </mxGeometry>
        </mxCell>
        <mxCell id="Loq4JmjkzfHorDy7ScUB-45" value="expressed date" style="edgeLabel;resizable=0;html=1;;align=center;verticalAlign=middle;" parent="Loq4JmjkzfHorDy7ScUB-44" connectable="0" vertex="1">
          <mxGeometry relative="1" as="geometry" />
        </mxCell>
        <mxCell id="Loq4JmjkzfHorDy7ScUB-46" value="16th February 1594" style="html=1;whiteSpace=wrap;rounded=1;arcSize=50;" parent="1" vertex="1">
          <mxGeometry x="810" y="40" width="135" height="50" as="geometry" />
        </mxCell>
        <mxCell id="Loq4JmjkzfHorDy7ScUB-47" value="" style="endArrow=classic;html=1;rounded=0;exitX=1;exitY=0;exitDx=0;exitDy=0;entryX=0.007;entryY=0.812;entryDx=0;entryDy=0;entryPerimeter=0;" parent="1" source="Loq4JmjkzfHorDy7ScUB-33" target="Loq4JmjkzfHorDy7ScUB-36" edge="1">
          <mxGeometry relative="1" as="geometry">
            <mxPoint x="820" y="320.0000000000002" as="sourcePoint" />
            <mxPoint x="960" y="320" as="targetPoint" />
          </mxGeometry>
        </mxCell>
        <mxCell id="Loq4JmjkzfHorDy7ScUB-48" value="has end date" style="edgeLabel;resizable=0;html=1;;align=center;verticalAlign=middle;" parent="Loq4JmjkzfHorDy7ScUB-47" connectable="0" vertex="1">
          <mxGeometry relative="1" as="geometry" />
        </mxCell>
        <mxCell id="Loq4JmjkzfHorDy7ScUB-49" value="" style="endArrow=classic;html=1;rounded=0;exitX=0.5;exitY=0;exitDx=0;exitDy=0;entryX=1;entryY=1;entryDx=0;entryDy=0;" parent="1" source="Loq4JmjkzfHorDy7ScUB-27" target="Loq4JmjkzfHorDy7ScUB-35" edge="1">
          <mxGeometry relative="1" as="geometry">
            <mxPoint x="1250" y="400" as="sourcePoint" />
            <mxPoint x="1481" y="295" as="targetPoint" />
          </mxGeometry>
        </mxCell>
        <mxCell id="Loq4JmjkzfHorDy7ScUB-50" value="has end date" style="edgeLabel;resizable=0;html=1;;align=center;verticalAlign=middle;" parent="Loq4JmjkzfHorDy7ScUB-49" connectable="0" vertex="1">
          <mxGeometry relative="1" as="geometry" />
        </mxCell>
        <mxCell id="Loq4JmjkzfHorDy7ScUB-51" value="" style="endArrow=classic;html=1;rounded=0;entryX=0;entryY=0.5;entryDx=0;entryDy=0;exitX=0.992;exitY=0.014;exitDx=0;exitDy=0;exitPerimeter=0;jumpStyle=gap;jumpSize=13;" parent="1" source="Loq4JmjkzfHorDy7ScUB-24" target="Loq4JmjkzfHorDy7ScUB-25" edge="1">
          <mxGeometry relative="1" as="geometry">
            <mxPoint x="1160" y="330" as="sourcePoint" />
            <mxPoint x="1450" y="270" as="targetPoint" />
          </mxGeometry>
        </mxCell>
        <mxCell id="Loq4JmjkzfHorDy7ScUB-52" value="has or had position" style="edgeLabel;resizable=0;html=1;;align=center;verticalAlign=middle;" parent="Loq4JmjkzfHorDy7ScUB-51" connectable="0" vertex="1">
          <mxGeometry relative="1" as="geometry" />
        </mxCell>
        <mxCell id="Loq4JmjkzfHorDy7ScUB-53" value="Records of the Council of Castile transferred to Simancas in 1606" style="swimlane;fontStyle=0;childLayout=stackLayout;horizontal=1;startSize=40;strokeColor=#DAEEF3;fillColor=none;strokeWidth=3;horizontalStack=0;resizeParent=1;resizeParentMax=0;resizeLast=0;collapsible=1;marginBottom=0;whiteSpace=wrap;html=1;" parent="1" vertex="1">
          <mxGeometry x="1350" y="646" width="200" height="70" as="geometry" />
        </mxCell>
        <mxCell id="Loq4JmjkzfHorDy7ScUB-54" value="Record Set" style="text;strokeColor=#DAEEF3;strokeWidth=3;fillColor=none;align=center;verticalAlign=top;spacingLeft=4;spacingRight=4;overflow=hidden;rotatable=0;points=[[0,0.5],[1,0.5]];portConstraint=eastwest;whiteSpace=wrap;html=1;" parent="Loq4JmjkzfHorDy7ScUB-53" vertex="1">
          <mxGeometry y="40" width="200" height="30" as="geometry" />
        </mxCell>
        <mxCell id="Loq4JmjkzfHorDy7ScUB-55" value="" style="endArrow=classic;html=1;rounded=0;exitX=1.004;exitY=0.392;exitDx=0;exitDy=0;exitPerimeter=0;entryX=0;entryY=0.5;entryDx=0;entryDy=0;" parent="1" source="Loq4JmjkzfHorDy7ScUB-27" target="Loq4JmjkzfHorDy7ScUB-19" edge="1">
          <mxGeometry relative="1" as="geometry">
            <mxPoint x="1460" y="550" as="sourcePoint" />
            <mxPoint x="1630" y="550" as="targetPoint" />
          </mxGeometry>
        </mxCell>
        <mxCell id="Loq4JmjkzfHorDy7ScUB-56" value="is or was included in" style="edgeLabel;resizable=0;html=1;;align=center;verticalAlign=middle;" parent="Loq4JmjkzfHorDy7ScUB-55" connectable="0" vertex="1">
          <mxGeometry relative="1" as="geometry" />
        </mxCell>
        <mxCell id="Loq4JmjkzfHorDy7ScUB-57" value="" style="endArrow=classic;html=1;rounded=0;exitX=1.012;exitY=0.365;exitDx=0;exitDy=0;exitPerimeter=0;entryX=-0.017;entryY=0.077;entryDx=0;entryDy=0;entryPerimeter=0;" parent="1" source="Loq4JmjkzfHorDy7ScUB-53" target="Loq4JmjkzfHorDy7ScUB-20" edge="1">
          <mxGeometry relative="1" as="geometry">
            <mxPoint x="1511" y="650" as="sourcePoint" />
            <mxPoint x="1650" y="775" as="targetPoint" />
          </mxGeometry>
        </mxCell>
        <mxCell id="Loq4JmjkzfHorDy7ScUB-58" value="is or was included in" style="edgeLabel;resizable=0;html=1;;align=center;verticalAlign=middle;" parent="Loq4JmjkzfHorDy7ScUB-57" connectable="0" vertex="1">
          <mxGeometry relative="1" as="geometry" />
        </mxCell>
        <mxCell id="Loq4JmjkzfHorDy7ScUB-59" value="Arrangement by Diego de Ayala" style="swimlane;fontStyle=0;childLayout=stackLayout;horizontal=1;startSize=26;strokeColor=#FFFAA0;strokeWidth=3;fillColor=none;horizontalStack=0;resizeParent=1;resizeParentMax=0;resizeLast=0;collapsible=1;marginBottom=0;whiteSpace=wrap;html=1;" parent="1" vertex="1">
          <mxGeometry x="990" y="471.5" width="190" height="52" as="geometry" />
        </mxCell>
        <mxCell id="Loq4JmjkzfHorDy7ScUB-60" value="Activity" style="text;strokeColor=#FFFAA0;strokeWidth=3;fillColor=none;align=center;verticalAlign=top;spacingLeft=4;spacingRight=4;overflow=hidden;rotatable=0;points=[[0,0.5],[1,0.5]];portConstraint=eastwest;whiteSpace=wrap;html=1;" parent="Loq4JmjkzfHorDy7ScUB-59" vertex="1">
          <mxGeometry y="26" width="190" height="26" as="geometry" />
        </mxCell>
        <mxCell id="Loq4JmjkzfHorDy7ScUB-61" value="" style="endArrow=classic;html=1;rounded=0;exitX=0.5;exitY=0.981;exitDx=0;exitDy=0;exitPerimeter=0;" parent="1" source="Loq4JmjkzfHorDy7ScUB-60" target="wnpLFeybTVFm2gr5lIvb-1" edge="1">
          <mxGeometry relative="1" as="geometry">
            <mxPoint x="900" y="660" as="sourcePoint" />
            <mxPoint x="1079.5339691919962" y="594" as="targetPoint" />
          </mxGeometry>
        </mxCell>
        <mxCell id="Loq4JmjkzfHorDy7ScUB-62" value="activity type" style="edgeLabel;resizable=0;html=1;;align=center;verticalAlign=middle;" parent="Loq4JmjkzfHorDy7ScUB-61" connectable="0" vertex="1">
          <mxGeometry relative="1" as="geometry" />
        </mxCell>
        <mxCell id="Loq4JmjkzfHorDy7ScUB-65" value="" style="endArrow=classic;html=1;rounded=0;exitX=0;exitY=0.5;exitDx=0;exitDy=0;entryX=1;entryY=0.5;entryDx=0;entryDy=0;" parent="1" source="Loq4JmjkzfHorDy7ScUB-60" target="Loq4JmjkzfHorDy7ScUB-29" edge="1">
          <mxGeometry relative="1" as="geometry">
            <mxPoint x="900" y="660" as="sourcePoint" />
            <mxPoint x="1090" y="660" as="targetPoint" />
          </mxGeometry>
        </mxCell>
        <mxCell id="Loq4JmjkzfHorDy7ScUB-66" value="affects or affected" style="edgeLabel;resizable=0;html=1;;align=center;verticalAlign=middle;" parent="Loq4JmjkzfHorDy7ScUB-65" connectable="0" vertex="1">
          <mxGeometry relative="1" as="geometry" />
        </mxCell>
        <mxCell id="Loq4JmjkzfHorDy7ScUB-67" value="" style="endArrow=classic;html=1;rounded=0;exitX=0;exitY=0.096;exitDx=0;exitDy=0;entryX=1.018;entryY=0.4;entryDx=0;entryDy=0;entryPerimeter=0;exitPerimeter=0;" parent="1" source="Loq4JmjkzfHorDy7ScUB-60" target="Loq4JmjkzfHorDy7ScUB-17" edge="1">
          <mxGeometry relative="1" as="geometry">
            <mxPoint x="980" y="450" as="sourcePoint" />
            <mxPoint x="750" y="584" as="targetPoint" />
          </mxGeometry>
        </mxCell>
        <mxCell id="Loq4JmjkzfHorDy7ScUB-68" value="affects or affected" style="edgeLabel;resizable=0;html=1;;align=center;verticalAlign=middle;" parent="Loq4JmjkzfHorDy7ScUB-67" connectable="0" vertex="1">
          <mxGeometry relative="1" as="geometry" />
        </mxCell>
        <mxCell id="Loq4JmjkzfHorDy7ScUB-69" value="" style="endArrow=classic;html=1;rounded=0;entryX=1;entryY=0.5;entryDx=0;entryDy=0;exitX=0;exitY=0;exitDx=0;exitDy=0;jumpStyle=gap;jumpSize=14;" parent="1" source="Loq4JmjkzfHorDy7ScUB-59" target="Loq4JmjkzfHorDy7ScUB-33" edge="1">
          <mxGeometry relative="1" as="geometry">
            <mxPoint x="1000" y="450" as="sourcePoint" />
            <mxPoint x="760" y="459" as="targetPoint" />
          </mxGeometry>
        </mxCell>
        <mxCell id="Loq4JmjkzfHorDy7ScUB-70" value="affects or affected" style="edgeLabel;resizable=0;html=1;;align=center;verticalAlign=middle;" parent="Loq4JmjkzfHorDy7ScUB-69" connectable="0" vertex="1">
          <mxGeometry relative="1" as="geometry">
            <mxPoint x="43" y="29" as="offset" />
          </mxGeometry>
        </mxCell>
        <mxCell id="Loq4JmjkzfHorDy7ScUB-71" value="" style="endArrow=classic;html=1;rounded=0;exitX=1.013;exitY=0.037;exitDx=0;exitDy=0;exitPerimeter=0;entryX=0;entryY=0.5;entryDx=0;entryDy=0;" parent="1" source="Loq4JmjkzfHorDy7ScUB-60" target="Loq4JmjkzfHorDy7ScUB-27" edge="1">
          <mxGeometry relative="1" as="geometry">
            <mxPoint x="1200" y="522.4500000000003" as="sourcePoint" />
            <mxPoint x="1370" y="522.45" as="targetPoint" />
          </mxGeometry>
        </mxCell>
        <mxCell id="Loq4JmjkzfHorDy7ScUB-72" value="results or resulted in" style="edgeLabel;resizable=0;html=1;;align=center;verticalAlign=middle;" parent="Loq4JmjkzfHorDy7ScUB-71" connectable="0" vertex="1">
          <mxGeometry relative="1" as="geometry" />
        </mxCell>
        <mxCell id="Loq4JmjkzfHorDy7ScUB-73" value="" style="endArrow=classic;html=1;rounded=0;exitX=0.5;exitY=0;exitDx=0;exitDy=0;entryX=0.384;entryY=0.945;entryDx=0;entryDy=0;entryPerimeter=0;" parent="1" source="Loq4JmjkzfHorDy7ScUB-59" target="Loq4JmjkzfHorDy7ScUB-24" edge="1">
          <mxGeometry relative="1" as="geometry">
            <mxPoint x="1110" y="410" as="sourcePoint" />
            <mxPoint x="1300" y="410" as="targetPoint" />
          </mxGeometry>
        </mxCell>
        <mxCell id="Loq4JmjkzfHorDy7ScUB-74" value="is or was performed by" style="edgeLabel;resizable=0;html=1;;align=center;verticalAlign=middle;" parent="Loq4JmjkzfHorDy7ScUB-73" connectable="0" vertex="1">
          <mxGeometry relative="1" as="geometry" />
        </mxCell>
        <mxCell id="Loq4JmjkzfHorDy7ScUB-75" value="Records of the Council of Castile held at the royal court after its move to Madrid in 1606" style="swimlane;fontStyle=0;childLayout=stackLayout;horizontal=1;startSize=37;strokeColor=#DAEEF3;fillColor=none;strokeWidth=3;horizontalStack=0;resizeParent=1;resizeParentMax=0;resizeLast=0;collapsible=1;marginBottom=0;whiteSpace=wrap;html=1;" parent="1" vertex="1">
          <mxGeometry x="1680" y="770" width="250" height="63" as="geometry" />
        </mxCell>
        <mxCell id="Loq4JmjkzfHorDy7ScUB-76" value="Record Set" style="text;strokeColor=#DAEEF3;strokeWidth=3;fillColor=none;align=center;verticalAlign=top;spacingLeft=4;spacingRight=4;overflow=hidden;rotatable=0;points=[[0,0.5],[1,0.5]];portConstraint=eastwest;whiteSpace=wrap;html=1;" parent="Loq4JmjkzfHorDy7ScUB-75" vertex="1">
          <mxGeometry y="37" width="250" height="26" as="geometry" />
        </mxCell>
        <mxCell id="Loq4JmjkzfHorDy7ScUB-77" value="Move of the royal court to Madrid in 1606" style="swimlane;fontStyle=0;childLayout=stackLayout;horizontal=1;startSize=30;strokeColor=#FFFAA0;strokeWidth=2;fillColor=none;horizontalStack=0;resizeParent=1;resizeParentMax=0;resizeLast=0;collapsible=1;marginBottom=0;whiteSpace=wrap;html=1;" parent="1" vertex="1">
          <mxGeometry x="2200" y="687.5" width="240" height="56" as="geometry" />
        </mxCell>
        <mxCell id="Loq4JmjkzfHorDy7ScUB-78" value="Event" style="text;strokeColor=#FFFAA0;strokeWidth=2;fillColor=#FFFAA0;align=center;verticalAlign=top;spacingLeft=4;spacingRight=4;overflow=hidden;rotatable=0;points=[[0,0.5],[1,0.5]];portConstraint=eastwest;whiteSpace=wrap;html=1;" parent="Loq4JmjkzfHorDy7ScUB-77" vertex="1">
          <mxGeometry y="30" width="240" height="26" as="geometry" />
        </mxCell>
        <mxCell id="Loq4JmjkzfHorDy7ScUB-79" value="" style="endArrow=classic;html=1;rounded=0;entryX=0;entryY=1;entryDx=0;entryDy=0;" parent="1" source="Loq4JmjkzfHorDy7ScUB-77" target="Loq4JmjkzfHorDy7ScUB-13" edge="1">
          <mxGeometry relative="1" as="geometry">
            <mxPoint x="2386" y="612" as="sourcePoint" />
            <mxPoint x="2160" y="612" as="targetPoint" />
          </mxGeometry>
        </mxCell>
        <mxCell id="Loq4JmjkzfHorDy7ScUB-80" value="has or had participant" style="edgeLabel;resizable=0;html=1;;align=center;verticalAlign=middle;" parent="Loq4JmjkzfHorDy7ScUB-79" connectable="0" vertex="1">
          <mxGeometry relative="1" as="geometry" />
        </mxCell>
        <mxCell id="Loq4JmjkzfHorDy7ScUB-81" value="" style="endArrow=classic;html=1;rounded=0;entryX=0.12;entryY=-0.039;entryDx=0;entryDy=0;entryPerimeter=0;exitX=0.596;exitY=1.014;exitDx=0;exitDy=0;exitPerimeter=0;" parent="1" source="Loq4JmjkzfHorDy7ScUB-78" target="Loq4JmjkzfHorDy7ScUB-7" edge="1">
          <mxGeometry relative="1" as="geometry">
            <mxPoint x="2340" y="747.5" as="sourcePoint" />
            <mxPoint x="2462" y="687.5" as="targetPoint" />
          </mxGeometry>
        </mxCell>
        <mxCell id="Loq4JmjkzfHorDy7ScUB-82" value="affects or affected" style="edgeLabel;resizable=0;html=1;;align=center;verticalAlign=middle;" parent="Loq4JmjkzfHorDy7ScUB-81" connectable="0" vertex="1">
          <mxGeometry relative="1" as="geometry" />
        </mxCell>
        <mxCell id="Loq4JmjkzfHorDy7ScUB-83" value="Transfer of records of the Council of Castile to Simancas in 1606" style="swimlane;fontStyle=0;childLayout=stackLayout;horizontal=1;startSize=40;strokeColor=#FFFAA0;strokeWidth=3;fillColor=none;horizontalStack=0;resizeParent=1;resizeParentMax=0;resizeLast=0;collapsible=1;marginBottom=0;whiteSpace=wrap;html=1;" parent="1" vertex="1">
          <mxGeometry x="1700" y="1010" width="220" height="66" as="geometry" />
        </mxCell>
        <mxCell id="Loq4JmjkzfHorDy7ScUB-84" value="Activity" style="text;strokeColor=#FFFAA0;strokeWidth=3;fillColor=none;align=center;verticalAlign=top;spacingLeft=4;spacingRight=4;overflow=hidden;rotatable=0;points=[[0,0.5],[1,0.5]];portConstraint=eastwest;whiteSpace=wrap;html=1;" parent="Loq4JmjkzfHorDy7ScUB-83" vertex="1">
          <mxGeometry y="40" width="220" height="26" as="geometry" />
        </mxCell>
        <mxCell id="Loq4JmjkzfHorDy7ScUB-85" value="" style="endArrow=classic;html=1;rounded=0;exitX=0;exitY=0.75;exitDx=0;exitDy=0;entryX=0.944;entryY=-0.019;entryDx=0;entryDy=0;entryPerimeter=0;" parent="1" source="Loq4JmjkzfHorDy7ScUB-77" target="Loq4JmjkzfHorDy7ScUB-83" edge="1">
          <mxGeometry relative="1" as="geometry">
            <mxPoint x="1880" y="920" as="sourcePoint" />
            <mxPoint x="2050" y="920" as="targetPoint" />
          </mxGeometry>
        </mxCell>
        <mxCell id="Loq4JmjkzfHorDy7ScUB-86" value="has or had subevent" style="edgeLabel;resizable=0;html=1;;align=center;verticalAlign=middle;" parent="Loq4JmjkzfHorDy7ScUB-85" connectable="0" vertex="1">
          <mxGeometry relative="1" as="geometry">
            <mxPoint x="106" y="-99" as="offset" />
          </mxGeometry>
        </mxCell>
        <mxCell id="Loq4JmjkzfHorDy7ScUB-87" value="" style="endArrow=classic;html=1;rounded=0;exitX=0.5;exitY=0;exitDx=0;exitDy=0;entryX=0.504;entryY=0.977;entryDx=0;entryDy=0;entryPerimeter=0;" parent="1" source="Loq4JmjkzfHorDy7ScUB-19" target="Loq4JmjkzfHorDy7ScUB-4" edge="1">
          <mxGeometry relative="1" as="geometry">
            <mxPoint x="1710" y="435" as="sourcePoint" />
            <mxPoint x="1805" y="348" as="targetPoint" />
          </mxGeometry>
        </mxCell>
        <mxCell id="Loq4JmjkzfHorDy7ScUB-88" value="has or had holder" style="edgeLabel;resizable=0;html=1;;align=center;verticalAlign=middle;" parent="Loq4JmjkzfHorDy7ScUB-87" connectable="0" vertex="1">
          <mxGeometry relative="1" as="geometry" />
        </mxCell>
        <mxCell id="Loq4JmjkzfHorDy7ScUB-89" value="" style="endArrow=classic;html=1;rounded=0;exitX=1;exitY=0;exitDx=0;exitDy=0;entryX=0;entryY=0.5;entryDx=0;entryDy=0;" parent="1" source="Loq4JmjkzfHorDy7ScUB-75" target="Loq4JmjkzfHorDy7ScUB-13" edge="1">
          <mxGeometry relative="1" as="geometry">
            <mxPoint x="1960" y="743.5" as="sourcePoint" />
            <mxPoint x="1960" y="586.5" as="targetPoint" />
          </mxGeometry>
        </mxCell>
        <mxCell id="Loq4JmjkzfHorDy7ScUB-90" value="has or had holder" style="edgeLabel;resizable=0;html=1;;align=center;verticalAlign=middle;" parent="Loq4JmjkzfHorDy7ScUB-89" connectable="0" vertex="1">
          <mxGeometry relative="1" as="geometry" />
        </mxCell>
        <mxCell id="Loq4JmjkzfHorDy7ScUB-91" value="" style="endArrow=classic;html=1;rounded=0;entryX=-0.001;entryY=-0.031;entryDx=0;entryDy=0;entryPerimeter=0;exitX=1;exitY=0.5;exitDx=0;exitDy=0;" parent="1" source="Loq4JmjkzfHorDy7ScUB-83" target="Loq4JmjkzfHorDy7ScUB-2" edge="1">
          <mxGeometry relative="1" as="geometry">
            <mxPoint x="1980" y="1040" as="sourcePoint" />
            <mxPoint x="2153" y="1161" as="targetPoint" />
          </mxGeometry>
        </mxCell>
        <mxCell id="Loq4JmjkzfHorDy7ScUB-92" value="affects or affected" style="edgeLabel;resizable=0;html=1;;align=center;verticalAlign=middle;" parent="Loq4JmjkzfHorDy7ScUB-91" connectable="0" vertex="1">
          <mxGeometry relative="1" as="geometry" />
        </mxCell>
        <mxCell id="Loq4JmjkzfHorDy7ScUB-93" value="" style="endArrow=classic;html=1;rounded=0;exitX=0.126;exitY=0.001;exitDx=0;exitDy=0;exitPerimeter=0;" parent="1" source="Loq4JmjkzfHorDy7ScUB-83" target="Loq4JmjkzfHorDy7ScUB-54" edge="1">
          <mxGeometry relative="1" as="geometry">
            <mxPoint x="1320" y="863" as="sourcePoint" />
            <mxPoint x="1478" y="810" as="targetPoint" />
          </mxGeometry>
        </mxCell>
        <mxCell id="Loq4JmjkzfHorDy7ScUB-94" value="results or resulted in" style="edgeLabel;resizable=0;html=1;;align=center;verticalAlign=middle;" parent="Loq4JmjkzfHorDy7ScUB-93" connectable="0" vertex="1">
          <mxGeometry relative="1" as="geometry" />
        </mxCell>
        <mxCell id="Loq4JmjkzfHorDy7ScUB-95" value="" style="endArrow=classic;html=1;rounded=0;entryX=0.55;entryY=0.023;entryDx=0;entryDy=0;entryPerimeter=0;exitX=0.311;exitY=0.994;exitDx=0;exitDy=0;exitPerimeter=0;" parent="1" source="Loq4JmjkzfHorDy7ScUB-78" target="Loq4JmjkzfHorDy7ScUB-1" edge="1">
          <mxGeometry relative="1" as="geometry">
            <mxPoint x="2275" y="750" as="sourcePoint" />
            <mxPoint x="2433" y="881" as="targetPoint" />
          </mxGeometry>
        </mxCell>
        <mxCell id="Loq4JmjkzfHorDy7ScUB-96" value="affects or affected" style="edgeLabel;resizable=0;html=1;;align=center;verticalAlign=middle;" parent="Loq4JmjkzfHorDy7ScUB-95" connectable="0" vertex="1">
          <mxGeometry relative="1" as="geometry" />
        </mxCell>
        <mxCell id="Loq4JmjkzfHorDy7ScUB-97" value="" style="endArrow=classic;html=1;rounded=0;exitX=1;exitY=0.5;exitDx=0;exitDy=0;entryX=0.442;entryY=0.971;entryDx=0;entryDy=0;entryPerimeter=0;" parent="1" source="Loq4JmjkzfHorDy7ScUB-19" target="Loq4JmjkzfHorDy7ScUB-100" edge="1">
          <mxGeometry relative="1" as="geometry">
            <mxPoint x="1960" y="531.0000000000002" as="sourcePoint" />
            <mxPoint x="2210" y="400" as="targetPoint" />
          </mxGeometry>
        </mxCell>
        <mxCell id="Loq4JmjkzfHorDy7ScUB-98" value="has or had all members with creation date" style="edgeLabel;resizable=0;html=1;;align=center;verticalAlign=middle;" parent="Loq4JmjkzfHorDy7ScUB-97" connectable="0" vertex="1">
          <mxGeometry relative="1" as="geometry" />
        </mxCell>
        <mxCell id="Loq4JmjkzfHorDy7ScUB-99" value="Period of time during which records of the Council of Castile held at Simancas were created" style="swimlane;fontStyle=0;childLayout=stackLayout;horizontal=1;startSize=46;strokeColor=#DDD9C3;strokeWidth=2;fillColor=none;horizontalStack=0;resizeParent=1;resizeParentMax=0;resizeLast=0;collapsible=1;marginBottom=0;whiteSpace=wrap;html=1;" parent="1" vertex="1">
          <mxGeometry x="2170" y="310" width="270" height="72" as="geometry" />
        </mxCell>
        <mxCell id="Loq4JmjkzfHorDy7ScUB-100" value="Date" style="text;strokeColor=#DDD9C3;strokeWidth=2;fillColor=#DDD9C3;align=center;verticalAlign=top;spacingLeft=4;spacingRight=4;overflow=hidden;rotatable=0;points=[[0,0.5],[1,0.5]];portConstraint=eastwest;whiteSpace=wrap;html=1;" parent="Loq4JmjkzfHorDy7ScUB-99" vertex="1">
          <mxGeometry y="46" width="270" height="26" as="geometry" />
        </mxCell>
        <mxCell id="Loq4JmjkzfHorDy7ScUB-101" value="" style="endArrow=classic;html=1;rounded=0;" parent="1" source="Loq4JmjkzfHorDy7ScUB-99" edge="1">
          <mxGeometry relative="1" as="geometry">
            <mxPoint x="2180" y="250" as="sourcePoint" />
            <mxPoint x="2090" y="240" as="targetPoint" />
          </mxGeometry>
        </mxCell>
        <mxCell id="Loq4JmjkzfHorDy7ScUB-102" value="normalized date" style="edgeLabel;resizable=0;html=1;;align=center;verticalAlign=middle;" parent="Loq4JmjkzfHorDy7ScUB-101" connectable="0" vertex="1">
          <mxGeometry relative="1" as="geometry" />
        </mxCell>
        <mxCell id="Loq4JmjkzfHorDy7ScUB-103" value="1437/1678" style="html=1;whiteSpace=wrap;rounded=1;arcSize=50;" parent="1" vertex="1">
          <mxGeometry x="1985" y="205" width="110" height="50" as="geometry" />
        </mxCell>
        <mxCell id="Loq4JmjkzfHorDy7ScUB-104" value="" style="endArrow=classic;html=1;rounded=0;exitX=0.647;exitY=0.003;exitDx=0;exitDy=0;exitPerimeter=0;" parent="1" source="Loq4JmjkzfHorDy7ScUB-99" target="Loq4JmjkzfHorDy7ScUB-106" edge="1">
          <mxGeometry relative="1" as="geometry">
            <mxPoint x="2406" y="255" as="sourcePoint" />
            <mxPoint x="2345" y="200" as="targetPoint" />
          </mxGeometry>
        </mxCell>
        <mxCell id="Loq4JmjkzfHorDy7ScUB-105" value="expressed date" style="edgeLabel;resizable=0;html=1;;align=center;verticalAlign=middle;" parent="Loq4JmjkzfHorDy7ScUB-104" connectable="0" vertex="1">
          <mxGeometry relative="1" as="geometry" />
        </mxCell>
        <mxCell id="Loq4JmjkzfHorDy7ScUB-106" value="1437 to 1678" style="html=1;whiteSpace=wrap;rounded=1;arcSize=50;" parent="1" vertex="1">
          <mxGeometry x="2290" y="169.5" width="110" height="50" as="geometry" />
        </mxCell>
        <mxCell id="Loq4JmjkzfHorDy7ScUB-107" value="" style="endArrow=classic;html=1;rounded=0;exitX=1.013;exitY=0.037;exitDx=0;exitDy=0;exitPerimeter=0;entryX=0;entryY=0.5;entryDx=0;entryDy=0;" parent="1" target="Loq4JmjkzfHorDy7ScUB-29" edge="1">
          <mxGeometry relative="1" as="geometry">
            <mxPoint x="270" y="716" as="sourcePoint" />
            <mxPoint x="428" y="663" as="targetPoint" />
          </mxGeometry>
        </mxCell>
        <mxCell id="Loq4JmjkzfHorDy7ScUB-108" value="results or resulted in" style="edgeLabel;resizable=0;html=1;;align=center;verticalAlign=middle;" parent="Loq4JmjkzfHorDy7ScUB-107" connectable="0" vertex="1">
          <mxGeometry relative="1" as="geometry" />
        </mxCell>
        <mxCell id="Loq4JmjkzfHorDy7ScUB-109" value="" style="endArrow=classic;html=1;rounded=0;exitX=0.5;exitY=0;exitDx=0;exitDy=0;entryX=0;entryY=0.5;entryDx=0;entryDy=0;" parent="1" source="Loq4JmjkzfHorDy7ScUB-31" target="Loq4JmjkzfHorDy7ScUB-17" edge="1">
          <mxGeometry relative="1" as="geometry">
            <mxPoint x="210" y="696" as="sourcePoint" />
            <mxPoint x="470" y="620" as="targetPoint" />
          </mxGeometry>
        </mxCell>
        <mxCell id="Loq4JmjkzfHorDy7ScUB-110" value="results or resulted in" style="edgeLabel;resizable=0;html=1;;align=center;verticalAlign=middle;" parent="Loq4JmjkzfHorDy7ScUB-109" connectable="0" vertex="1">
          <mxGeometry relative="1" as="geometry" />
        </mxCell>
        <mxCell id="Loq4JmjkzfHorDy7ScUB-111" value="" style="endArrow=classic;html=1;rounded=0;exitX=0.25;exitY=0;exitDx=0;exitDy=0;entryX=0;entryY=0.5;entryDx=0;entryDy=0;" parent="1" source="Loq4JmjkzfHorDy7ScUB-31" target="Loq4JmjkzfHorDy7ScUB-33" edge="1">
          <mxGeometry relative="1" as="geometry">
            <mxPoint x="170" y="699" as="sourcePoint" />
            <mxPoint x="465" y="490" as="targetPoint" />
          </mxGeometry>
        </mxCell>
        <mxCell id="Loq4JmjkzfHorDy7ScUB-112" value="results or resulted in" style="edgeLabel;resizable=0;html=1;;align=center;verticalAlign=middle;" parent="Loq4JmjkzfHorDy7ScUB-111" connectable="0" vertex="1">
          <mxGeometry relative="1" as="geometry" />
        </mxCell>
        <mxCell id="Loq4JmjkzfHorDy7ScUB-113" value="" style="endArrow=classic;html=1;rounded=0;exitX=0;exitY=0.5;exitDx=0;exitDy=0;entryX=1;entryY=0.5;entryDx=0;entryDy=0;" parent="1" source="Loq4JmjkzfHorDy7ScUB-83" target="Loq4JmjkzfHorDy7ScUB-31" edge="1">
          <mxGeometry relative="1" as="geometry">
            <mxPoint x="1002" y="890" as="sourcePoint" />
            <mxPoint x="710" y="1170" as="targetPoint" />
          </mxGeometry>
        </mxCell>
        <mxCell id="Loq4JmjkzfHorDy7ScUB-114" value="is or was subevent of" style="edgeLabel;resizable=0;html=1;;align=center;verticalAlign=middle;" parent="Loq4JmjkzfHorDy7ScUB-113" connectable="0" vertex="1">
          <mxGeometry relative="1" as="geometry" />
        </mxCell>
        <mxCell id="Loq4JmjkzfHorDy7ScUB-115" value="" style="endArrow=classic;html=1;rounded=0;exitX=1;exitY=0.25;exitDx=0;exitDy=0;entryX=0;entryY=0.5;entryDx=0;entryDy=0;" parent="1" source="Loq4JmjkzfHorDy7ScUB-31" target="Loq4JmjkzfHorDy7ScUB-53" edge="1">
          <mxGeometry relative="1" as="geometry">
            <mxPoint x="520" y="776" as="sourcePoint" />
            <mxPoint x="780" y="700" as="targetPoint" />
          </mxGeometry>
        </mxCell>
        <mxCell id="Loq4JmjkzfHorDy7ScUB-116" value="results or resulted in" style="edgeLabel;resizable=0;html=1;;align=center;verticalAlign=middle;" parent="Loq4JmjkzfHorDy7ScUB-115" connectable="0" vertex="1">
          <mxGeometry relative="1" as="geometry" />
        </mxCell>
        <mxCell id="Loq4JmjkzfHorDy7ScUB-117" value="" style="endArrow=classic;html=1;rounded=0;exitX=1;exitY=0.5;exitDx=0;exitDy=0;entryX=0.137;entryY=0.005;entryDx=0;entryDy=0;entryPerimeter=0;jumpStyle=gap;jumpSize=12;" parent="1" source="Loq4JmjkzfHorDy7ScUB-20" target="Loq4JmjkzfHorDy7ScUB-1" edge="1">
          <mxGeometry relative="1" as="geometry">
            <mxPoint x="1920" y="600" as="sourcePoint" />
            <mxPoint x="2089" y="726" as="targetPoint" />
          </mxGeometry>
        </mxCell>
        <mxCell id="Loq4JmjkzfHorDy7ScUB-118" value="is or was included in" style="edgeLabel;resizable=0;html=1;;align=center;verticalAlign=middle;" parent="Loq4JmjkzfHorDy7ScUB-117" connectable="0" vertex="1">
          <mxGeometry relative="1" as="geometry">
            <mxPoint x="-104" y="-109" as="offset" />
          </mxGeometry>
        </mxCell>
        <mxCell id="Loq4JmjkzfHorDy7ScUB-119" value="" style="endArrow=classic;html=1;rounded=0;exitX=0.669;exitY=1.087;exitDx=0;exitDy=0;entryX=0;entryY=0;entryDx=0;entryDy=0;jumpStyle=gap;jumpSize=12;exitPerimeter=0;" parent="1" source="Loq4JmjkzfHorDy7ScUB-76" target="Loq4JmjkzfHorDy7ScUB-1" edge="1">
          <mxGeometry relative="1" as="geometry">
            <mxPoint x="1910" y="591" as="sourcePoint" />
            <mxPoint x="2239" y="948" as="targetPoint" />
          </mxGeometry>
        </mxCell>
        <mxCell id="Loq4JmjkzfHorDy7ScUB-120" value="is or was included in" style="edgeLabel;resizable=0;html=1;;align=center;verticalAlign=middle;" parent="Loq4JmjkzfHorDy7ScUB-119" connectable="0" vertex="1">
          <mxGeometry relative="1" as="geometry">
            <mxPoint x="-58" y="-19" as="offset" />
          </mxGeometry>
        </mxCell>
        <mxCell id="Loq4JmjkzfHorDy7ScUB-121" value="" style="endArrow=classic;html=1;rounded=0;exitX=0.571;exitY=1.077;exitDx=0;exitDy=0;curved=1;exitPerimeter=0;" parent="1" source="Loq4JmjkzfHorDy7ScUB-2" edge="1">
          <mxGeometry relative="1" as="geometry">
            <mxPoint x="2240" y="1136" as="sourcePoint" />
            <mxPoint x="2660" y="550" as="targetPoint" />
            <Array as="points">
              <mxPoint x="2890" y="1120" />
            </Array>
          </mxGeometry>
        </mxCell>
        <mxCell id="Loq4JmjkzfHorDy7ScUB-122" value="has or had holder" style="edgeLabel;resizable=0;html=1;;align=center;verticalAlign=middle;" parent="Loq4JmjkzfHorDy7ScUB-121" connectable="0" vertex="1">
          <mxGeometry relative="1" as="geometry">
            <mxPoint x="-216" y="-155" as="offset" />
          </mxGeometry>
        </mxCell>
        <mxCell id="Loq4JmjkzfHorDy7ScUB-123" value="" style="endArrow=classic;html=1;rounded=0;curved=1;entryX=0.682;entryY=-0.022;entryDx=0;entryDy=0;entryPerimeter=0;" parent="1" target="Loq4JmjkzfHorDy7ScUB-3" edge="1">
          <mxGeometry relative="1" as="geometry">
            <mxPoint x="2230" y="990" as="sourcePoint" />
            <mxPoint x="1880" y="210" as="targetPoint" />
            <Array as="points">
              <mxPoint x="2670" y="1130" />
              <mxPoint x="3040" y="750" />
              <mxPoint x="2620" y="100" />
              <mxPoint x="2210" y="40" />
            </Array>
          </mxGeometry>
        </mxCell>
        <mxCell id="Loq4JmjkzfHorDy7ScUB-124" value="has or had holder" style="edgeLabel;resizable=0;html=1;;align=center;verticalAlign=middle;" parent="Loq4JmjkzfHorDy7ScUB-123" connectable="0" vertex="1">
          <mxGeometry relative="1" as="geometry">
            <mxPoint x="-105" y="-159" as="offset" />
          </mxGeometry>
        </mxCell>
        <mxCell id="Loq4JmjkzfHorDy7ScUB-125" value="" style="endArrow=classic;html=1;rounded=0;exitX=0.275;exitY=0;exitDx=0;exitDy=0;exitPerimeter=0;entryX=0.437;entryY=0.945;entryDx=0;entryDy=0;entryPerimeter=0;" parent="1" source="Loq4JmjkzfHorDy7ScUB-13" target="Loq4JmjkzfHorDy7ScUB-128" edge="1">
          <mxGeometry relative="1" as="geometry">
            <mxPoint x="2570.25" y="480" as="sourcePoint" />
            <mxPoint x="2540" y="390" as="targetPoint" />
          </mxGeometry>
        </mxCell>
        <mxCell id="Loq4JmjkzfHorDy7ScUB-126" value="has or had location" style="edgeLabel;resizable=0;html=1;;align=center;verticalAlign=middle;" parent="Loq4JmjkzfHorDy7ScUB-125" connectable="0" vertex="1">
          <mxGeometry relative="1" as="geometry" />
        </mxCell>
        <mxCell id="Loq4JmjkzfHorDy7ScUB-127" value="Valladolid" style="swimlane;fontStyle=0;childLayout=stackLayout;horizontal=1;startSize=26;strokeColor=#FAA0A0;strokeWidth=2;fillColor=none;horizontalStack=0;resizeParent=1;resizeParentMax=0;resizeLast=0;collapsible=1;marginBottom=0;whiteSpace=wrap;html=1;" parent="1" vertex="1">
          <mxGeometry x="2500" y="330" width="90" height="52" as="geometry" />
        </mxCell>
        <mxCell id="Loq4JmjkzfHorDy7ScUB-128" value="Place" style="text;strokeColor=#FAA0A0;strokeWidth=2;fillColor=#FAA0A0;align=center;verticalAlign=top;spacingLeft=4;spacingRight=4;overflow=hidden;rotatable=0;points=[[0,0.5],[1,0.5]];portConstraint=eastwest;whiteSpace=wrap;html=1;" parent="Loq4JmjkzfHorDy7ScUB-127" vertex="1">
          <mxGeometry y="26" width="90" height="26" as="geometry" />
        </mxCell>
        <mxCell id="Loq4JmjkzfHorDy7ScUB-129" value="Madrid" style="swimlane;fontStyle=0;childLayout=stackLayout;horizontal=1;startSize=26;strokeColor=#FAA0A0;strokeWidth=2;fillColor=none;horizontalStack=0;resizeParent=1;resizeParentMax=0;resizeLast=0;collapsible=1;marginBottom=0;whiteSpace=wrap;html=1;" parent="1" vertex="1">
          <mxGeometry x="2669.5" y="359" width="90" height="52" as="geometry" />
        </mxCell>
        <mxCell id="Loq4JmjkzfHorDy7ScUB-130" value="Place" style="text;strokeColor=#FAA0A0;strokeWidth=2;fillColor=#FAA0A0;align=center;verticalAlign=top;spacingLeft=4;spacingRight=4;overflow=hidden;rotatable=0;points=[[0,0.5],[1,0.5]];portConstraint=eastwest;whiteSpace=wrap;html=1;" parent="Loq4JmjkzfHorDy7ScUB-129" vertex="1">
          <mxGeometry y="26" width="90" height="26" as="geometry" />
        </mxCell>
        <mxCell id="Loq4JmjkzfHorDy7ScUB-131" value="" style="endArrow=classic;html=1;rounded=0;exitX=0.625;exitY=-0.022;exitDx=0;exitDy=0;exitPerimeter=0;entryX=0.5;entryY=1;entryDx=0;entryDy=0;" parent="1" source="Loq4JmjkzfHorDy7ScUB-13" target="Loq4JmjkzfHorDy7ScUB-129" edge="1">
          <mxGeometry relative="1" as="geometry">
            <mxPoint x="2621" y="556" as="sourcePoint" />
            <mxPoint x="2620" y="439" as="targetPoint" />
          </mxGeometry>
        </mxCell>
        <mxCell id="Loq4JmjkzfHorDy7ScUB-132" value="has or had location" style="edgeLabel;resizable=0;html=1;;align=center;verticalAlign=middle;" parent="Loq4JmjkzfHorDy7ScUB-131" connectable="0" vertex="1">
          <mxGeometry relative="1" as="geometry" />
        </mxCell>
        <mxCell id="Loq4JmjkzfHorDy7ScUB-133" value="" style="endArrow=classic;html=1;rounded=0;exitX=0.498;exitY=1.068;exitDx=0;exitDy=0;exitPerimeter=0;entryX=0.5;entryY=0;entryDx=0;entryDy=0;" parent="1" source="Loq4JmjkzfHorDy7ScUB-32" target="wnpLFeybTVFm2gr5lIvb-2" edge="1">
          <mxGeometry relative="1" as="geometry">
            <mxPoint x="234" y="790" as="sourcePoint" />
            <mxPoint x="234.5" y="880.6" as="targetPoint" />
          </mxGeometry>
        </mxCell>
        <mxCell id="Loq4JmjkzfHorDy7ScUB-134" value="activity type" style="edgeLabel;resizable=0;html=1;;align=center;verticalAlign=middle;" parent="Loq4JmjkzfHorDy7ScUB-133" connectable="0" vertex="1">
          <mxGeometry relative="1" as="geometry" />
        </mxCell>
        <mxCell id="wnpLFeybTVFm2gr5lIvb-1" value="Arrangement" style="html=1;whiteSpace=wrap;rounded=1;arcSize=50;" vertex="1" parent="1">
          <mxGeometry x="1030.0039691919962" y="600" width="110" height="50" as="geometry" />
        </mxCell>
        <mxCell id="wnpLFeybTVFm2gr5lIvb-2" value="Accrual" style="html=1;whiteSpace=wrap;rounded=1;arcSize=50;" vertex="1" parent="1">
          <mxGeometry x="180" y="869.5" width="110" height="50" as="geometry" />
        </mxCell>
      </root>
    </mxGraphModel>
  </diagram>
</mxfile>
